# xmcd CD database file
#
# Track frame offsets:
#	187
#	24735
#	41922
#	72850
#	94255
#	113590
#	140307
#	159955
#	179465
#	201775
#	224385
#	240887
#	266107
#	295492
#	321470
#
# Disc length: 4546 seconds
#
# Revision: 0
# Processed by: cddbd v1.5.2PL0 Copyright (c) Steve Scherf et al.
# Submitted via: CDex 1.51
#
DISCID=e111c00f
DTITLE=Various Artist - Funky Junky Beats
DYEAR=1998
DGENRE=Big Beat
TTITLE0=Not Another Drugstore
TTITLE1=Renegade Master '98 (Fatboy Slim Old Skool Edit)
TTITLE2=No Remorse
TTITLE3=Smack My Bitch Up (Edit)
TTITLE4=Angels Go Bald: Too (Edit)
TTITLE5=Absurd (Whitewash Mix)
TTITLE6=Space Journey
TTITLE7=Psyche Rock (Fatboy Slim Malpaso Edit) (with Michel Colombier)
TTITLE8=Bentleys Gonna Sort You Out
TTITLE9=I'm Alive (Fatboy Comes Alive) (presents Maddog)
TTITLE10=Satan Live (Industry Standart Edit)
TTITLE11=We Have Explosive (Mantronix Plastic Formula #1)
TTITLE12=Caverm (B-Boy Remix)
TTITLE13=Everybody Needs a 303 (Original 12" Mix)
TTITLE14=Come to Daddy (Pappy Mix)
EXTD=YEAR: 1998
EXTT0=
EXTT1=
EXTT2=
EXTT3=
EXTT4=
EXTT5=
EXTT6=
EXTT7=
EXTT8=
EXTT9=
EXTT10=
EXTT11=
EXTT12=
EXTT13=
EXTT14=
PLAYORDER=
